<svg width="379.72999267578126px" height="97.76000366210937px" xmlns="http://www.w3.org/2000/svg" viewBox="60.13500366210937 26.119998168945315 379.72999267578126 97.76000366210937" style="background: rgba(0, 0, 0, 0);" preserveAspectRatio="xMidYMid"><defs><filter id="editing-extrude-glow"><feFlood flood-color="#333333" result="flood-1"></feFlood><feMorphology operator="erode" radius="1" in="SourceAlpha" result="erode"></feMorphology><feComposite operator="in" in="flood-1" in2="erode" result="comp1"></feComposite><feConvolveMatrix order="2,2" divisor="1" in="comp1" result="convolve" kernelMatrix="0 0 1 1"></feConvolveMatrix><feOffset dx="-2" dy="0" in="convolve" result="extrude"></feOffset><feComposite operator="in" in="flood-1" in2="extrude" result="comp-extrude"></feComposite><feFlood flood-color="#000000" result="flood-2"></feFlood><feComposite operator="in" in="flood-2" in2="SourceAlpha" result="comp2"></feComposite><feMorphology operator="dilate" radius="1" in="comp2" result="dilate"></feMorphology><feOffset dx="-3" dy="0" in="dilate" result="offset"></feOffset><feGaussianBlur in="offset" stdDeviation="5.8" result="blur"></feGaussianBlur><feComponentTransfer in="blur" result="shadow"><feFuncA type="linear" slope="0.8" intercept="-0.2"></feFuncA></feComponentTransfer><feMerge><feMergeNode in="shadow"></feMergeNode><feMergeNode in="comp-extrude"></feMergeNode><feMergeNode in="SourceGraphic"></feMergeNode></feMerge></filter></defs><g filter="url(#editing-extrude-glow)"><g transform="translate(118.00002014636993, 92.83500480651855)"><path d="M8.93-20.82L8.93-20.82L8.93-20.82Q8.93-6.25 9.59-1.74L9.59-1.74L9.59-1.74Q9.59-0.61 7.43 0.12L7.43 0.12L7.43 0.12Q5.26 0.85 3.85 0.85L3.85 0.85L3.85 0.85Q2.44 0.85 2.44 0.42L2.44 0.42L2.44 0.42Q2.44 0.14 2.58-0.28L2.58-0.28L2.58-0.28Q3.48-2.26 3.48-16.17L3.48-16.17L3.48-16.17Q3.48-29.33 2.35-30.79L2.35-30.79L2.16-31.07L2.16-31.07Q1.88-31.30 1.88-31.65L1.88-31.65L1.88-31.65Q1.88-32.01 2.40-32.24L2.40-32.24L2.40-32.24Q3.10-32.66 4.91-33.09L4.91-33.09L4.91-33.09Q6.72-33.51 8.18-33.51L8.18-33.51L8.18-33.51Q9.63-33.51 9.63-32.85L9.63-32.85L9.63-32.71L9.63-32.71Q9.07-27.82 8.93-20.82ZM27.21-6.44L27.21-6.44L27.21-6.44Q27.21-4.42 26.44-2.91L26.44-2.91L26.44-2.91Q25.66-1.41 24.68-0.70L24.68-0.70L24.68-0.70Q23.69 0 22.33 0.42L22.33 0.42L22.33 0.42Q20.54 0.99 19.08 0.99L19.08 0.99L19.08 0.99Q16.03 0.99 14.01-0.21L14.01-0.21L14.01-0.21Q11.99-1.41 11.99-4.04L11.99-4.04L11.99-4.04Q11.99-5.59 12.83-6.58L12.83-6.58L12.83-6.58Q14.15-8.04 15.98-8.04L15.98-8.04L15.98-8.04Q16.54-8.04 16.54-7.52L16.54-7.52L16.54-7.52Q16.54-7.47 16.33-6.79L16.33-6.79L16.33-6.79Q16.12-6.11 16.12-5.08L16.12-5.08L16.12-5.08Q16.12-4.04 16.94-3.24L16.94-3.24L16.94-3.24Q17.77-2.44 18.94-2.44L18.94-2.44L18.94-2.44Q20.12-2.44 20.82-2.84L20.82-2.84L20.82-2.84Q21.53-3.24 21.81-3.85L21.81-3.85L21.81-3.85Q22.23-4.70 22.23-5.45L22.23-5.45L22.23-5.45Q22.23-6.82 20.87-7.80L20.87-7.80L20.87-7.80Q19.51-8.79 17.86-9.35L17.86-9.35L17.86-9.35Q16.21-9.92 14.85-11.23L14.85-11.23L14.85-11.23Q13.49-12.55 13.49-14.52L13.49-14.52L13.49-14.52Q13.49-17.91 15.63-19.60L15.63-19.60L15.63-19.60Q17.77-21.29 21.43-21.29L21.43-21.29L21.43-21.29Q23.03-21.29 24.79-20.84L24.79-20.84L24.79-20.84Q26.55-20.40 26.55-19.34L26.55-19.34L26.55-19.34Q26.55-18.28 26.20-17.39L26.20-17.39L26.20-17.39Q25.85-16.50 25.33-16.50L25.33-16.50L25.33-16.50Q25.05-16.50 24.96-16.71L24.96-16.71L24.96-16.71Q24.86-16.92 24.63-17.20L24.63-17.20L24.63-17.20Q24.39-17.48 23.50-17.93L23.50-17.93L23.50-17.93Q22.61-18.38 21.97-18.38L21.97-18.38L21.97-18.38Q21.34-18.38 21.13-18.35L21.13-18.35L21.13-18.35Q20.91-18.33 20.40-18.21L20.40-18.21L20.40-18.21Q19.88-18.09 19.46-17.86L19.46-17.86L19.46-17.86Q18.38-17.25 18.38-16.07L18.38-16.07L18.38-16.07Q18.38-15.32 18.71-14.97L18.71-14.97L18.71-14.97Q19.04-14.62 19.22-14.43L19.22-14.43L19.22-14.43Q19.41-14.24 19.88-13.98L19.88-13.98L19.88-13.98Q20.35-13.72 20.54-13.63L20.54-13.63L20.54-13.63Q20.73-13.54 21.38-13.23L21.38-13.23L21.38-13.23Q22.04-12.93 22.23-12.83L22.23-12.83L22.23-12.83Q27.21-10.48 27.21-6.44ZM55.37-14.71L55.37-14.71L55.32-20.30L55.32-20.30Q55.32-28.62 54.75-31.35L54.75-31.35L54.75-31.35Q54.66-31.68 54.66-31.87L54.66-31.87L54.66-31.87Q54.66-32.66 56.26-33.23L56.26-33.23L56.26-33.23Q57.86-33.79 58.80-33.79L58.80-33.79L58.80-33.79Q59.74-33.79 59.74-33.23L59.74-33.23L59.74-33.23Q59.74-33.18 59.64-32.71L59.64-32.71L59.64-32.71Q58.56-26.93 58.56-14.34L58.56-14.34L58.56-14.34Q58.56-5.73 59.55-1.97L59.55-1.97L59.55-1.97Q59.74-1.36 59.74-1.32L59.74-1.32L59.74-1.32Q59.74-0.33 57.58 0.31L57.58 0.31L57.58 0.31Q55.41 0.94 54.52 0.94L54.52 0.94L54.52 0.94Q53.11 0.94 52.59 0.28L52.59 0.28L52.59 0.28Q51.56-1.03 49.23-7.12L49.23-7.12L49.23-7.12Q46.91-13.21 45.17-18.47L45.17-18.47L43.38-23.73L43.38-23.73Q43.29-23.97 43.15-23.97L43.15-23.97L43.15-23.97Q42.96-23.97 42.72-23.64L42.72-23.64L42.72-23.64Q42.49-19.27 42.49-14.90L42.49-14.90L42.49-14.90Q42.49-10.53 42.56-8.18L42.56-8.18L42.56-8.18Q42.63-5.83 42.72-4.61L42.72-4.61L42.72-4.61Q42.82-3.38 42.91-2.66L42.91-2.66L42.91-2.66Q43.01-1.93 43.08-1.60L43.08-1.60L43.08-1.60Q43.15-1.27 43.15-1.13L43.15-1.13L43.15-1.13Q43.15-0.23 41.59 0.26L41.59 0.26L41.59 0.26Q40.04 0.75 38.80 0.75L38.80 0.75L38.80 0.75Q37.55 0.75 37.55 0.19L37.55 0.19L37.55 0.19Q37.55-0.09 37.69-0.52L37.69-0.52L37.69-0.52Q37.84-0.94 38.02-1.60L38.02-1.60L38.02-1.60Q38.49-3.24 38.68-7.59L38.68-7.59L38.68-7.59Q38.87-11.94 38.87-17.51L38.87-17.51L38.87-17.51Q38.87-23.08 38.73-25.61L38.73-25.61L38.73-25.61Q38.49-29.75 37.88-31.16L37.88-31.16L37.88-31.16Q37.74-31.30 37.74-31.54L37.74-31.54L37.74-31.54Q37.74-32.29 40.23-32.99L40.23-32.99L40.23-32.99Q42.72-33.70 44.11-33.70L44.11-33.70L44.11-33.70Q45.50-33.70 45.73-33.65L45.73-33.65L45.73-33.65Q46.39-33.70 46.53-32.90L46.53-32.90L46.53-32.90Q47.89-27.96 50.36-21.29L50.36-21.29L50.36-21.29Q52.83-14.62 54.75-11.09L54.75-11.09L54.75-11.09Q54.99-10.86 55.13-10.86L55.13-10.86L55.13-10.86Q55.37-10.86 55.37-14.71ZM67.16-17.72L67.16-17.72L67.16-17.72Q65.94-17.67 65.40-17.65L65.40-17.65L65.40-17.65Q64.86-17.63 64.86-17.91L64.86-17.91L64.86-17.91Q64.86-18.19 65.14-18.47L65.14-18.47L65.14-18.47Q68.15-21.24 75.29-21.24L75.29-21.24L75.29-21.24Q77.74-21.24 79.15-20.82L79.15-20.82L79.62-20.68L79.62-20.68Q80.18-20.45 80.18-20.16L80.18-20.16L80.18-20.16Q80.18-19.93 79.85-19.79L79.85-19.79L79.85-19.79Q78.58-19.41 77.41-18.59L77.41-18.59L77.41-18.59Q76.23-17.77 76.23-17.44L76.23-17.44L76.52-17.11L76.52-17.11Q78.02-16.26 78.84-14.43L78.84-14.43L78.84-14.43Q79.67-12.60 79.76-11.19L79.76-11.19L79.85-9.73L79.85-9.73Q79.85-5.08 77.27-2.07L77.27-2.07L77.27-2.07Q74.68 0.94 70.22 0.94L70.22 0.94L70.22 0.94Q67.96 0.94 66.32 0.14L66.32 0.14L66.32 0.14Q64.67-0.66 63.90-1.67L63.90-1.67L63.90-1.67Q63.12-2.68 62.65-3.95L62.65-3.95L62.65-3.95Q62.09-5.69 62.09-7.54L62.09-7.54L62.09-7.54Q62.09-9.40 62.72-11.28L62.72-11.28L62.72-11.28Q63.36-13.16 64.18-14.05L64.18-14.05L64.18-14.05Q65.00-14.95 66.04-15.51L66.04-15.51L66.04-15.51Q67.35-16.21 68.15-16.21L68.15-16.21L68.15-16.21Q68.95-16.21 68.95-15.89L68.95-15.89L68.67-15.42L68.67-15.42Q67.63-14.19 67.19-12.22L67.19-12.22L67.19-12.22Q66.74-10.25 66.74-8.72L66.74-8.72L66.74-8.72Q66.74-7.19 67.12-5.69L67.12-5.69L67.12-5.69Q67.49-4.18 67.96-3.45L67.96-3.45L67.96-3.45Q68.43-2.73 69.04-2.35L69.04-2.35L69.04-2.35Q69.94-1.79 70.92-1.79L70.92-1.79L70.92-1.79Q71.91-1.79 72.85-2.56L72.85-2.56L72.85-2.56Q73.79-3.34 74.21-4.61L74.21-4.61L74.21-4.61Q75.06-6.96 75.06-9.45L75.06-9.45L75.06-9.45Q75.06-13.39 73.06-15.56L73.06-15.56L73.06-15.56Q71.06-17.72 67.16-17.72ZM81.59-18.33L81.59-18.33L81.73-20.21L81.73-20.21Q81.78-20.63 82.39-20.63L82.39-20.63L84.04-20.63L83.85-24.39L83.85-24.58L83.85-24.58Q83.85-25.66 85.49-26.65L85.49-26.65L85.49-26.65Q87.14-27.64 88.50-27.64L88.50-27.64L88.50-27.64Q88.92-27.64 88.92-27.26L88.92-27.26L88.92-27.21L88.92-27.21Q88.74-25.94 88.55-20.68L88.55-20.68L88.55-20.68Q90.62-20.68 91.18-20.77L91.18-20.77L91.18-20.77Q91.74-20.87 91.79-20.87L91.79-20.87L91.79-20.87Q92.12-20.87 92.12-20.30L92.12-20.30L92.12-20.30Q92.12-19.74 91.60-18.87L91.60-18.87L91.60-18.87Q91.09-18.00 90.47-17.95L90.47-17.95L88.50-17.95L88.50-17.95Q88.45-16.36 88.45-12.57L88.45-12.57L88.45-12.57Q88.45-8.79 88.52-6.34L88.52-6.34L88.52-6.34Q88.59-3.90 88.69-2.66L88.69-2.66L88.69-2.66Q88.78-1.41 88.90-0.66L88.90-0.66L88.90-0.66Q89.02 0.09 89.09 0.42L89.09 0.42L89.09 0.42Q89.16 0.75 89.16 0.85L89.16 0.85L89.16 0.85Q89.16 1.32 88.55 1.36L88.55 1.36L88.55 1.36Q86.72 1.36 84.91 0.85L84.91 0.85L84.91 0.85Q83.10 0.33 83.10-0.94L83.10-0.94L83.10-0.94Q84.08-8.84 84.08-17.91L84.08-17.91L84.08-17.91Q82.81-17.91 82.16-17.81L82.16-17.81L82.11-17.81L82.11-17.81Q81.69-17.81 81.59-18.33ZM113.50-26.93L113.50-26.93L113.50-26.93Q109.79-22.28 108.15-17.63L108.15-17.63L108.19-17.63L108.19-17.63Q114.73-17.63 115.69-17.60L115.69-17.60L115.69-17.60Q116.65-17.58 116.75-17.67L116.75-17.67L116.75-17.67Q116.84-17.77 116.89-17.91L116.89-17.91L116.89-17.91Q116.09-23.69 115.62-25.78L115.62-25.78L115.62-25.78Q115.15-27.87 114.68-27.87L114.68-27.87L114.68-27.87Q114.21-27.87 113.50-26.93ZM109.32-4.79L109.32-4.79L110.36-4.98L110.36-4.98Q110.83-4.98 110.83-4.46L110.83-4.46L110.83-4.46Q110.83-2.82 110.17-1.69L110.17-1.69L110.17-1.69Q109.51-0.56 108.52-0.09L108.52-0.09L108.52-0.09Q106.92 0.70 105.80 0.70L105.80 0.70L105.80 0.70Q103.64 0.70 102.55-0.92L102.55-0.92L102.55-0.92Q101.47-2.54 101.47-5.80L101.47-5.80L101.47-5.80Q101.47-9.07 103.26-14.29L103.26-14.29L100.53-14.29L100.53-14.29Q100.02-14.29 100.02-14.80L100.02-14.80L100.02-14.80Q100.02-15.32 100.81-16.47L100.81-16.47L100.81-16.47Q101.61-17.63 102.51-17.63L102.51-17.63L104.62-17.63L104.62-17.63Q107.96-25.05 112.47-30.46L112.47-30.46L112.47-30.46Q113.65-31.87 115.36-33.09L115.36-33.09L115.36-33.09Q117.08-34.31 118.02-34.31L118.02-34.31L118.02-34.31Q118.96-34.31 119.43-33.46L119.43-33.46L119.43-33.46Q120.65-31.49 122.29-19.04L122.29-19.04L122.29-19.04Q122.86-13.68 124.24-7.97L124.24-7.97L124.24-7.97Q125.63-2.26 126.81-1.32L126.81-1.32L126.81-1.32Q127.09-1.13 127.09-0.85L127.09-0.85L127.09-0.85Q127.09-0.14 125.09 0.47L125.09 0.47L125.09 0.47Q123.09 1.08 122.04 1.08L122.04 1.08L122.04 1.08Q120.98 1.08 120.41 0.82L120.41 0.82L120.41 0.82Q119.85 0.56 119.71 0.28L119.71 0.28L119.71 0.28Q118.86-1.55 118.02-8.46L118.02-8.46L117.73-10.67L117.73-10.67Q117.55-12.88 117.36-14.01L117.36-14.01L117.03-14.24L107.21-14.29L107.21-14.29Q106.64-11.89 106.64-10.11L106.64-10.11L106.64-10.11Q106.64-8.32 106.76-7.50L106.76-7.50L106.76-7.50Q106.88-6.67 107.54-5.73L107.54-5.73L107.54-5.73Q108.19-4.79 109.32-4.79ZM138.34-20.30L138.34-20.30L138.34-20.30Q140.34-21.29 142.32-21.29L142.32-21.29L142.32-21.29Q144.29-21.29 144.29-17.20L144.29-17.20L144.29-17.20Q144.29-14.19 143.19-11.09L143.19-11.09L143.19-11.09Q142.08-7.99 140.44-5.64L140.44-5.64L140.44-5.64Q137.05-0.70 134.33 0.94L134.33 0.94L134.33 0.94Q133.67 1.32 133.34 1.32L133.34 1.32L133.34 1.32Q133.01 1.32 132.66 0.61L132.66 0.61L132.66 0.61Q132.31-0.09 131.58-2.49L131.58-2.49L131.58-2.49Q130.85-4.89 130.38-6.77L130.38-6.77L129.96-8.70L129.96-8.70Q129.01-12.83 128.12-15.30L128.12-15.30L128.12-15.30Q127.23-17.77 126.81-18.14L126.81-18.14L126.34-18.57L126.34-18.57Q125.87-18.80 125.87-19.13L125.87-19.13L126.10-19.55L126.10-19.55Q126.71-20.12 128.15-20.70L128.15-20.70L128.15-20.70Q129.58-21.29 131.32-21.29L131.32-21.29L131.32-21.29Q132.12-21.29 132.31-20.40L132.31-20.40L132.31-20.40Q133.01-18.24 133.53-15.32L133.53-15.32L133.53-15.32Q134.04-12.41 134.91-8.74L134.91-8.74L134.91-8.74Q135.78-5.08 136.35-5.03L136.35-5.03L136.35-5.03Q136.63-5.03 136.98-5.45L136.98-5.45L136.98-5.45Q137.33-5.88 137.83-6.58L137.83-6.58L137.83-6.58Q138.32-7.29 139.05-9.31L139.05-9.31L139.05-9.31Q139.78-11.33 139.78-12.76L139.78-12.76L139.78-12.76Q139.78-14.19 139.66-14.97L139.66-14.97L139.66-14.97Q139.54-15.74 138.84-16.78L138.84-16.78L138.84-16.78Q138.13-17.81 137.24-17.98L137.24-17.98L137.24-17.98Q136.35-18.14 136.35-18.57L136.35-18.57L136.35-18.57Q136.35-19.32 138.34-20.30ZM161.16-14.10L161.16-14.10L161.07-8.08L161.07-8.08Q161.07-1.83 162.43-0.56L162.43-0.56L162.43-0.56Q162.62-0.38 162.62-0.14L162.62-0.14L162.62-0.14Q162.62 0.56 159.59 0.56L159.59 0.56L159.59 0.56Q156.56 0.56 156.37-1.22L156.37-1.22L156.37-1.22Q156.32-1.65 156.32-2.96L156.32-2.96L156.51-10.48L156.51-10.48Q156.51-10.81 156.13-10.81L156.13-10.81L156.13-10.81Q153.88-10.81 151.90-9.54L151.90-9.54L151.90-9.54Q149.93-8.27 149.93-6.30L149.93-6.30L149.93-6.30Q149.93-5.26 150.49-4.56L150.49-4.56L150.49-4.56Q151.06-3.85 151.88-3.85L151.88-3.85L151.88-3.85Q152.70-3.85 153.24-4.18L153.24-4.18L153.24-4.18Q153.78-4.51 153.88-4.56L153.88-4.56L153.88-4.56Q154.68-4.46 154.68-2.89L154.68-2.89L154.68-2.89Q154.68-1.32 153.22-0.35L153.22-0.35L153.22-0.35Q151.76 0.61 150.17 0.61L150.17 0.61L150.17 0.61Q148.57 0.61 147.42 0.05L147.42 0.05L147.42 0.05Q146.26-0.52 145.75-1.22L145.75-1.22L145.75-1.22Q145.23-1.93 144.90-2.82L144.90-2.82L144.90-2.82Q144.57-3.90 144.57-4.70L144.57-4.70L144.57-4.70Q144.57-7.99 146.64-9.96L146.64-9.96L146.64-9.96Q148.71-11.94 151.95-12.78L151.95-12.78L151.95-12.78Q156.23-13.63 156.42-14.34L156.42-14.34L156.42-14.34Q156.56-14.85 156.56-16.07L156.56-16.07L156.56-16.07Q156.56-18.57 154.02-18.57L154.02-18.57L154.02-18.57Q152.94-18.57 152.09-17.88L152.09-17.88L152.09-17.88Q151.25-17.20 151.25-16.17L151.25-16.17L151.53-15.04L151.53-15.04Q151.43-14.24 149.84-14.10L149.84-14.10L149.32-14.05L149.32-14.05Q147.91-14.05 147.09-14.76L147.09-14.76L147.09-14.76Q146.26-15.46 146.26-16.64L146.26-16.64L146.26-16.64Q146.26-17.39 146.76-18.31L146.76-18.31L146.76-18.31Q147.25-19.22 148.00-19.79L148.00-19.79L148.00-19.79Q148.75-20.35 150.33-20.80L150.33-20.80L150.33-20.80Q151.90-21.24 153.36-21.24L153.36-21.24L153.36-21.24Q154.82-21.24 155.62-21.15L155.62-21.15L155.62-21.15Q156.42-21.06 157.80-20.70L157.80-20.70L157.80-20.70Q159.19-20.35 160.11-19.36L160.11-19.36L160.11-19.36Q161.02-18.38 161.09-17.27L161.09-17.27L161.09-17.27Q161.16-16.17 161.16-14.10ZM168.87-25.14L168.87-25.14L167.74-25.19L167.74-25.19Q166.47-25.19 166.10-24.58L166.10-24.58L166.10-24.58Q166.00-24.44 165.86-24.44L165.86-24.44L165.86-24.44Q165.25-24.44 165.25-26.53L165.25-26.53L165.25-26.53Q165.25-28.62 165.89-29.19L165.89-29.19L165.89-29.19Q166.52-29.75 168.10-29.75L168.10-29.75L168.10-29.75Q169.67-29.75 170.23-29.21L170.23-29.21L170.23-29.21Q170.80-28.67 170.80-27.40L170.80-27.40L170.80-27.40Q170.80-26.13 170.38-25.64L170.38-25.64L170.38-25.64Q169.95-25.14 168.87-25.14ZM165.11-1.41L165.11-1.41L165.63-12.36L165.63-12.36Q165.63-16.26 164.74-17.67L164.74-17.67L164.74-17.67Q164.45-18.14 164.08-18.38L164.08-18.38L164.08-18.38Q163.80-18.47 163.80-18.75L163.80-18.75L163.80-18.75Q163.80-19.60 166.19-20.40L166.19-20.40L166.19-20.40Q168.59-21.20 169.69-21.20L169.69-21.20L169.69-21.20Q170.80-21.20 170.84-20.63L170.84-20.63L170.84-20.63Q170.84-19.69 170.59-15.30L170.59-15.30L170.59-15.30Q170.33-10.90 170.33-6.06L170.33-6.06L170.33-6.06Q170.33-1.22 170.89-0.05L170.89-0.05L170.89-0.05Q171.03 0.19 171.03 0.42L171.03 0.42L171.03 0.42Q171.03 1.03 169.25 1.03L169.25 1.03L169.25 1.03Q167.46 1.03 165.58 0.09L165.58 0.09L165.58 0.09Q165.11-0.14 165.11-1.41ZM180.25-26.88L180.25-26.88L179.96-9.63L179.96-9.63Q179.96-1.55 180.48 0.05L180.48 0.05L180.48 0.05Q180.62 0.33 180.62 0.61L180.62 0.61L180.62 0.61Q180.62 1.18 179.26 1.18L179.26 1.18L179.26 1.18Q177.90 1.18 176.23 0.49L176.23 0.49L176.23 0.49Q174.56-0.19 174.56-1.27L174.56-1.27L174.56-1.27Q175.50-7.85 175.50-18.85L175.50-18.85L175.31-26.04L175.31-26.04Q175.22-27.35 174.77-28.29L174.77-28.29L174.77-28.29Q174.32-29.23 173.90-29.52L173.90-29.52L173.52-29.75L173.52-29.75Q173.20-29.94 173.20-30.17L173.20-30.17L173.20-30.17Q173.20-30.83 175.24-31.80L175.24-31.80L175.24-31.80Q177.28-32.76 179.21-32.76L179.21-32.76L179.21-32.76Q179.96-32.76 180.06-32.24L180.06-32.24L180.06-32.24Q180.25-31.02 180.25-26.88ZM199.14-14.10L199.14-14.10L199.05-8.08L199.05-8.08Q199.05-1.83 200.41-0.56L200.41-0.56L200.41-0.56Q200.60-0.38 200.60-0.14L200.60-0.14L200.60-0.14Q200.60 0.56 197.56 0.56L197.56 0.56L197.56 0.56Q194.53 0.56 194.34-1.22L194.34-1.22L194.34-1.22Q194.30-1.65 194.30-2.96L194.30-2.96L194.49-10.48L194.49-10.48Q194.49-10.81 194.11-10.81L194.11-10.81L194.11-10.81Q191.85-10.81 189.88-9.54L189.88-9.54L189.88-9.54Q187.91-8.27 187.91-6.30L187.91-6.30L187.91-6.30Q187.91-5.26 188.47-4.56L188.47-4.56L188.47-4.56Q189.03-3.85 189.86-3.85L189.86-3.85L189.86-3.85Q190.68-3.85 191.22-4.18L191.22-4.18L191.22-4.18Q191.76-4.51 191.85-4.56L191.85-4.56L191.85-4.56Q192.65-4.46 192.65-2.89L192.65-2.89L192.65-2.89Q192.65-1.32 191.20-0.35L191.20-0.35L191.20-0.35Q189.74 0.61 188.14 0.61L188.14 0.61L188.14 0.61Q186.54 0.61 185.39 0.05L185.39 0.05L185.39 0.05Q184.24-0.52 183.72-1.22L183.72-1.22L183.72-1.22Q183.21-1.93 182.88-2.82L182.88-2.82L182.88-2.82Q182.55-3.90 182.55-4.70L182.55-4.70L182.55-4.70Q182.55-7.99 184.62-9.96L184.62-9.96L184.62-9.96Q186.68-11.94 189.93-12.78L189.93-12.78L189.93-12.78Q194.20-13.63 194.39-14.34L194.39-14.34L194.39-14.34Q194.53-14.85 194.53-16.07L194.53-16.07L194.53-16.07Q194.53-18.57 192.00-18.57L192.00-18.57L192.00-18.57Q190.91-18.57 190.07-17.88L190.07-17.88L190.07-17.88Q189.22-17.20 189.22-16.17L189.22-16.17L189.50-15.04L189.50-15.04Q189.41-14.24 187.81-14.10L187.81-14.10L187.30-14.05L187.30-14.05Q185.89-14.05 185.06-14.76L185.06-14.76L185.06-14.76Q184.24-15.46 184.24-16.64L184.24-16.64L184.24-16.64Q184.24-17.39 184.73-18.31L184.73-18.31L184.73-18.31Q185.23-19.22 185.98-19.79L185.98-19.79L185.98-19.79Q186.73-20.35 188.31-20.80L188.31-20.80L188.31-20.80Q189.88-21.24 191.34-21.24L191.34-21.24L191.34-21.24Q192.79-21.24 193.59-21.15L193.59-21.15L193.59-21.15Q194.39-21.06 195.78-20.70L195.78-20.70L195.78-20.70Q197.17-20.35 198.08-19.36L198.08-19.36L198.08-19.36Q199.00-18.38 199.07-17.27L199.07-17.27L199.07-17.27Q199.14-16.17 199.14-14.10ZM211.50-16.21L211.50-16.21L210.42-15.93L210.42-15.93Q209.57-15.93 209.57-17.51L209.57-17.51L209.57-17.51Q209.57-19.08 210.72-20.05L210.72-20.05L210.72-20.05Q211.88-21.01 213.66-21.01L213.66-21.01L213.66-21.01Q214.65-21.01 215.78-20.42L215.78-20.42L215.78-20.42Q216.91-19.83 217.66-18.96L217.66-18.96L217.66-18.96Q218.41-18.09 219.00-16.24L219.00-16.24L219.00-16.24Q219.58-14.38 219.58-11.89L219.58-11.89L219.58-11.89Q219.58-6.16 216.51-2.58L216.51-2.58L216.51-2.58Q213.43 0.99 207.60 0.99L207.60 0.99L207.60 0.99Q205.91 0.99 204.26 0.66L204.26 0.66L203.79 0.56L203.79 0.56Q203.18 0.38 203.09-0.09L203.09-0.09L203.09-0.09Q202.95-1.08 202.95-4.75L202.95-4.75L203.23-19.98L203.23-19.98Q203.23-23.50 203.04-25.38L203.04-25.38L202.95-26.04L202.95-26.04Q202.85-27.35 202.41-28.29L202.41-28.29L202.41-28.29Q201.96-29.23 201.54-29.52L201.54-29.52L201.16-29.75L201.16-29.75Q200.83-29.94 200.83-30.17L200.83-30.17L200.83-30.17Q200.83-30.88 203.18-31.84L203.18-31.84L203.18-31.84Q205.53-32.81 206.61-32.81L206.61-32.81L206.61-32.81Q207.69-32.81 207.74-32.24L207.74-32.24L207.74-32.24Q208.07-29.38 208.07-24.06L208.07-24.06L207.83-12.78L207.83-12.78Q207.83-5.41 208.26-2.58L208.26-2.58L208.26-2.58Q208.30-1.93 209.74-1.93L209.74-1.93L209.74-1.93Q211.17-1.93 212.21-2.73L212.21-2.73L212.21-2.73Q213.24-3.52 213.76-4.84L213.76-4.84L213.76-4.84Q214.70-7.24 214.70-10.15L214.70-10.15L214.70-10.15Q214.70-11.52 214.32-13.11L214.32-13.11L214.32-13.11Q213.66-16.21 211.50-16.21ZM226.73-26.88L226.73-26.88L226.45-9.63L226.45-9.63Q226.45-1.55 226.96 0.05L226.96 0.05L226.96 0.05Q227.10 0.33 227.10 0.61L227.10 0.61L227.10 0.61Q227.10 1.18 225.74 1.18L225.74 1.18L225.74 1.18Q224.38 1.18 222.71 0.49L222.71 0.49L222.71 0.49Q221.04-0.19 221.04-1.27L221.04-1.27L221.04-1.27Q221.98-7.85 221.98-18.85L221.98-18.85L221.79-26.04L221.79-26.04Q221.70-27.35 221.25-28.29L221.25-28.29L221.25-28.29Q220.81-29.23 220.38-29.52L220.38-29.52L220.01-29.75L220.01-29.75Q219.68-29.94 219.68-30.17L219.68-30.17L219.68-30.17Q219.68-30.83 221.72-31.80L221.72-31.80L221.72-31.80Q223.77-32.76 225.69-32.76L225.69-32.76L225.69-32.76Q226.45-32.76 226.54-32.24L226.54-32.24L226.54-32.24Q226.73-31.02 226.73-26.88ZM234.39-11.94L234.39-11.94L234.44-10.76L234.44-10.76Q234.44-10.48 234.81-10.48L234.81-10.48L234.81-10.48Q236.32-10.62 237.44-11.26L237.44-11.26L237.44-11.26Q238.57-11.89 239.14-12.69L239.14-12.69L239.14-12.69Q240.26-14.43 240.36-15.70L240.36-15.70L240.41-16.26L240.41-16.26Q240.41-18.80 238.38-18.80L238.38-18.80L238.38-18.80Q236.88-18.80 235.94-17.48L235.94-17.48L235.94-17.48Q234.39-15.42 234.39-11.94ZM244.64-5.69L244.64-5.69L244.64-5.69Q244.64-3.90 243.91-2.56L243.91-2.56L243.91-2.56Q243.18-1.22 242.26-0.59L242.26-0.59L242.26-0.59Q241.34 0.05 240.12 0.42L240.12 0.42L240.12 0.42Q238.57 0.89 237.16 0.89L237.16 0.89L237.16 0.89Q233.21 0.89 231.33-2.07L231.33-2.07L231.33-2.07Q229.45-5.03 229.45-9.61L229.45-9.61L229.45-9.61Q229.45-14.19 231.78-17.77L231.78-17.77L231.78-17.77Q234.11-21.34 238.76-21.34L238.76-21.34L238.76-21.34Q242.99-21.34 244.49-18.38L244.49-18.38L244.49-18.38Q245.11-17.25 245.11-16.24L245.11-16.24L245.11-16.24Q245.11-15.23 245.01-14.64L245.01-14.64L245.01-14.64Q244.92-14.05 244.35-12.88L244.35-12.88L244.35-12.88Q243.79-11.70 242.85-10.76L242.85-10.76L242.85-10.76Q241.91-9.82 239.89-8.98L239.89-8.98L239.89-8.98Q237.87-8.13 235.14-7.85L235.14-7.85L235.14-7.85Q234.77-7.85 234.77-7.52L234.77-7.52L234.77-7.52Q234.77-7.10 235.07-6.27L235.07-6.27L235.07-6.27Q235.38-5.45 235.75-4.89L235.75-4.89L235.75-4.89Q236.79-3.57 238.81-3.57L238.81-3.57L238.81-3.57Q240.83-3.57 242.24-4.89L242.24-4.89L242.24-4.89Q242.99-5.59 243.46-6.63L243.46-6.63L243.46-6.63Q243.65-7.00 243.95-7.00L243.95-7.00L243.95-7.00Q244.26-7.00 244.45-6.49L244.45-6.49L244.45-6.49Q244.64-5.97 244.64-5.69ZM259.68 0.05L259.68 0.05L258.55 0.09L258.55 0.09Q257.42 0.09 257.04-0.38L257.04-0.38L257.04-0.38Q256.67-0.85 256.64-2.14L256.64-2.14L256.64-2.14Q256.62-3.43 257.23-4.00L257.23-4.00L257.23-4.00Q257.84-4.56 259.30-4.56L259.30-4.56L259.30-4.56Q260.76-4.56 261.44-4.02L261.44-4.02L261.44-4.02Q262.12-3.48 262.12-2.26L262.12-2.26L262.12-2.26Q262.12 0.80 261.51 0.80L261.51 0.80L261.27 0.66L261.27 0.66Q260.94 0.05 259.68 0.05Z" fill="#f55353"></path></g></g><style>text {
  font-size: 64px;
  font-family: Arial Black;
  dominant-baseline: central;
  text-anchor: middle;
}</style></svg>