<svg width="297.3350402832031px" height="153.44000549316405px" xmlns="http://www.w3.org/2000/svg" viewBox="101.33247985839844 -1.7200027465820256 297.3350402832031 153.44000549316405" style="background: rgba(0, 0, 0, 0);" preserveAspectRatio="xMidYMid"><defs><filter id="editing-extrude-glow"><feFlood flood-color="#333333" result="flood-1"></feFlood><feMorphology operator="erode" radius="1" in="SourceAlpha" result="erode"></feMorphology><feComposite operator="in" in="flood-1" in2="erode" result="comp1"></feComposite><feConvolveMatrix order="2,2" divisor="1" in="comp1" result="convolve" kernelMatrix="0 0 1 1"></feConvolveMatrix><feOffset dx="-2" dy="0" in="convolve" result="extrude"></feOffset><feComposite operator="in" in="flood-1" in2="extrude" result="comp-extrude"></feComposite><feFlood flood-color="#000000" result="flood-2"></feFlood><feComposite operator="in" in="flood-2" in2="SourceAlpha" result="comp2"></feComposite><feMorphology operator="dilate" radius="1" in="comp2" result="dilate"></feMorphology><feOffset dx="-3" dy="0" in="dilate" result="offset"></feOffset><feGaussianBlur in="offset" stdDeviation="5.8" result="blur"></feGaussianBlur><feComponentTransfer in="blur" result="shadow"><feFuncA type="linear" slope="0.8" intercept="-0.2"></feFuncA></feComponentTransfer><feMerge><feMergeNode in="shadow"></feMergeNode><feMergeNode in="comp-extrude"></feMergeNode><feMergeNode in="SourceGraphic"></feMergeNode></feMerge></filter></defs><g filter="url(#editing-extrude-glow)"><g transform="translate(149.2400268316269, 104.68000602722168)"><path d="M23.36-51.36L23.36-51.36L23.36-51.36Q20.48-51.36 18.56-49.28L18.56-49.28L18.56-49.28Q15.20-45.60 15.20-39.96L15.20-39.96L15.20-39.96Q15.20-34.32 18.08-33.20L18.08-33.20L18.08-33.20Q18.80-32.96 18.80-32.16L18.80-32.16L18.80-32.16Q18.80-29.76 17.20-28.12L17.20-28.12L17.20-28.12Q15.60-26.48 13.28-26.16L13.28-26.16L13.28-26.16Q12.56-26.16 12.56-25.60L12.56-25.60L12.56-25.60Q12.48-24.72 12.48-23.08L12.48-23.08L12.48-23.08Q12.48-21.44 12.64-19.48L12.64-19.48L12.64-19.48Q12.80-17.52 13.40-14.84L13.40-14.84L13.40-14.84Q14-12.16 15-10.20L15-10.20L15-10.20Q16-8.24 17.88-6.84L17.88-6.84L17.88-6.84Q19.76-5.44 22.76-5.44L22.76-5.44L22.76-5.44Q25.76-5.44 28.16-7.84L28.16-7.84L28.16-7.84Q30.56-10.24 31.52-14.08L31.52-14.08L31.52-14.08Q33.28-20.80 33.28-27L33.28-27L33.28-27Q33.28-33.20 32.48-37.92L32.48-37.92L32.48-37.92Q31.68-42.64 30.60-45.12L30.60-45.12L30.60-45.12Q29.52-47.60 28-49.12L28-49.12L28-49.12Q26.48-50.64 25.44-51L25.44-51L25.44-51Q24.40-51.36 23.36-51.36ZM8.80-43.44L8.80-43.44L9.12-43.92L9.12-43.92Q9.92-47.60 11.72-50.28L11.72-50.28L11.72-50.28Q13.52-52.96 15.32-54.28L15.32-54.28L15.32-54.28Q17.12-55.60 19.36-56.32L19.36-56.32L19.36-56.32Q22.32-57.28 24.56-57.28L24.56-57.28L24.56-57.28Q29.92-57.28 33.80-54.80L33.80-54.80L33.80-54.80Q37.68-52.32 39.68-48.08L39.68-48.08L39.68-48.08Q43.36-40 43.36-29.76L43.36-29.76L43.36-29.76Q43.36-12.56 35.36-4.72L35.36-4.72L35.36-4.72Q31.44-0.88 26.72 0.48L26.72 0.48L26.72 0.48Q23.76 1.36 21.04 1.36L21.04 1.36L21.04 1.36Q11.04 1.36 6.32-5.48L6.32-5.48L6.32-5.48Q1.60-12.32 1.60-22.80L1.60-22.80L1.60-22.80Q1.60-28.88 2.64-33.96L2.64-33.96L2.64-33.96Q3.68-39.04 4.80-41.12L4.80-41.12L5.84-43.20L5.84-43.20Q6.16-43.92 6.88-43.92L6.88-43.92L6.88-43.92Q7.60-43.92 7.96-43.80L7.96-43.80L7.96-43.80Q8.32-43.68 8.52-43.56L8.52-43.56L8.52-43.56Q8.72-43.44 8.80-43.44ZM68.32-51.36L68.32-51.36L68.32-51.36Q65.44-51.36 63.52-49.28L63.52-49.28L63.52-49.28Q60.16-45.60 60.16-39.96L60.16-39.96L60.16-39.96Q60.16-34.32 63.04-33.20L63.04-33.20L63.04-33.20Q63.76-32.96 63.76-32.16L63.76-32.16L63.76-32.16Q63.76-29.76 62.16-28.12L62.16-28.12L62.16-28.12Q60.56-26.48 58.24-26.16L58.24-26.16L58.24-26.16Q57.52-26.16 57.52-25.60L57.52-25.60L57.52-25.60Q57.44-24.72 57.44-23.08L57.44-23.08L57.44-23.08Q57.44-21.44 57.60-19.48L57.60-19.48L57.60-19.48Q57.76-17.52 58.36-14.84L58.36-14.84L58.36-14.84Q58.96-12.16 59.96-10.20L59.96-10.20L59.96-10.20Q60.96-8.24 62.84-6.84L62.84-6.84L62.84-6.84Q64.72-5.44 67.72-5.44L67.72-5.44L67.72-5.44Q70.72-5.44 73.12-7.84L73.12-7.84L73.12-7.84Q75.52-10.24 76.48-14.08L76.48-14.08L76.48-14.08Q78.24-20.80 78.24-27L78.24-27L78.24-27Q78.24-33.20 77.44-37.92L77.44-37.92L77.44-37.92Q76.64-42.64 75.56-45.12L75.56-45.12L75.56-45.12Q74.48-47.60 72.96-49.12L72.96-49.12L72.96-49.12Q71.44-50.64 70.40-51L70.40-51L70.40-51Q69.36-51.36 68.32-51.36ZM53.76-43.44L53.76-43.44L54.08-43.92L54.08-43.92Q54.88-47.60 56.68-50.28L56.68-50.28L56.68-50.28Q58.48-52.96 60.28-54.28L60.28-54.28L60.28-54.28Q62.08-55.60 64.32-56.32L64.32-56.32L64.32-56.32Q67.28-57.28 69.52-57.28L69.52-57.28L69.52-57.28Q74.88-57.28 78.76-54.80L78.76-54.80L78.76-54.80Q82.64-52.32 84.64-48.08L84.64-48.08L84.64-48.08Q88.32-40 88.32-29.76L88.32-29.76L88.32-29.76Q88.32-12.56 80.32-4.72L80.32-4.72L80.32-4.72Q76.40-0.88 71.68 0.48L71.68 0.48L71.68 0.48Q68.72 1.36 66 1.36L66 1.36L66 1.36Q56 1.36 51.28-5.48L51.28-5.48L51.28-5.48Q46.56-12.32 46.56-22.80L46.56-22.80L46.56-22.80Q46.56-28.88 47.60-33.96L47.60-33.96L47.60-33.96Q48.64-39.04 49.76-41.12L49.76-41.12L50.80-43.20L50.80-43.20Q51.12-43.92 51.84-43.92L51.84-43.92L51.84-43.92Q52.56-43.92 52.92-43.80L52.92-43.80L52.92-43.80Q53.28-43.68 53.48-43.56L53.48-43.56L53.48-43.56Q53.68-43.44 53.76-43.44ZM110.48-33.52L110.48-33.52L110.48-33.52Q110.80-33.52 111.68-32.88L111.68-32.88L111.68-32.88Q112.56-32.24 113.52-32.24L113.52-32.24L113.60-32.24L113.60-32.24Q116.32-32.24 117.92-34.40L117.92-34.40L117.92-34.40Q119.52-36.56 119.68-38.72L119.68-38.72L119.92-40.88L119.92-40.88Q119.92-43.92 119-46.12L119-46.12L119-46.12Q118.08-48.32 116.88-49.40L116.88-49.40L116.88-49.40Q115.68-50.48 114.08-51.04L114.08-51.04L114.08-51.04Q112.08-51.84 109.88-51.84L109.88-51.84L109.88-51.84Q107.68-51.84 106.32-51.40L106.32-51.40L106.32-51.40Q104.96-50.96 104.80-50.56L104.80-50.56L104.72-50.08L104.72-50.08Q104-39.28 104-30.76L104-30.76L104-30.76Q104-22.24 104.28-16.08L104.28-16.08L104.28-16.08Q104.56-9.92 104.84-6.60L104.84-6.60L104.84-6.60Q105.12-3.28 105.12-2.96L105.12-2.96L105.12-2.96Q105.12-0.96 101.60 0.24L101.60 0.24L101.60 0.24Q98.08 1.44 94.64 1.44L94.64 1.44L94.64 1.44Q93.04 1.44 93.04 0.64L93.04 0.64L93.04 0.64Q93.04 0.40 93.28-0.48L93.28-0.48L93.28-0.48Q94.80-4 94.80-33.20L94.80-33.20L94.80-33.20Q94.80-50.40 92.48-52.88L92.48-52.88L92.48-52.88Q92-53.36 92-53.88L92-53.88L92-53.88Q92-54.40 93.16-55.04L93.16-55.04L93.16-55.04Q94.32-55.68 99.68-56.52L99.68-56.52L99.68-56.52Q105.04-57.36 111.04-57.36L111.04-57.36L111.04-57.36Q120.48-57.36 125.24-52.24L125.24-52.24L125.24-52.24Q130-47.12 130-40.04L130-40.04L130-40.04Q130-32.96 126.12-27.76L126.12-27.76L126.12-27.76Q122.24-22.56 116-22.56L116-22.56L116-22.56Q114-22.56 112-23.28L112-23.28L112-23.28Q108-24.72 108-29.28L108-29.28L108-29.28Q108-30.24 108.64-31.88L108.64-31.88L108.64-31.88Q109.28-33.52 110.48-33.52ZM157.36-44.32L157.36-44.32L157.68-46.80L157.68-46.80Q157.68-50.48 154.80-51.52L154.80-51.52L154.80-51.52Q152.56-52.24 151.36-52.24L151.36-52.24L151.28-52.24L151.28-52.24Q148.88-52.24 147.12-51.48L147.12-51.48L147.12-51.48Q145.36-50.72 144.56-49.60L144.56-49.60L144.56-49.60Q142.88-47.28 142.64-44.72L142.64-44.72L142.64-44.72Q142.64-41.68 145.36-39.48L145.36-39.48L145.36-39.48Q148.08-37.28 151.96-35.64L151.96-35.64L151.96-35.64Q155.84-34 159.72-32.08L159.72-32.08L159.72-32.08Q163.60-30.16 166.32-26.56L166.32-26.56L166.32-26.56Q169.04-22.96 169.04-17.92L169.04-17.92L169.04-17.92Q169.04-8.08 162.84-3.20L162.84-3.20L162.84-3.20Q156.64 1.68 148.76 1.68L148.76 1.68L148.76 1.68Q140.88 1.68 135.72-1.88L135.72-1.88L135.72-1.88Q130.56-5.44 130.56-11.44L130.56-11.44L130.56-11.52L130.56-11.52Q130.56-14.48 131.48-16.68L131.48-16.68L131.48-16.68Q132.40-18.88 133.68-19.92L133.68-19.92L133.68-19.92Q136.32-22.08 138.48-22.24L138.48-22.24L139.44-22.32L139.44-22.32Q141.68-22.32 143.52-21.24L143.52-21.24L143.52-21.24Q145.36-20.16 145.36-18.24L145.36-18.24L145.36-18.24Q145.36-17.28 144.32-16.64L144.32-16.64L144.32-16.64Q143.28-16 142.52-14.72L142.52-14.72L142.52-14.72Q141.76-13.44 141.68-12.56L141.68-12.56L141.52-11.68L141.52-11.68Q141.52-6.80 146-5.20L146-5.20L146-5.20Q147.60-4.64 148.56-4.64L148.56-4.64L148.56-4.64Q152.96-4.64 155.64-7.28L155.64-7.28L155.64-7.28Q158.32-9.92 158.32-14L158.32-14L158.32-14Q158.32-18.88 154.16-21.92L154.16-21.92L154.16-21.92Q151.04-24.16 147.40-25.68L147.40-25.68L147.40-25.68Q143.76-27.20 142.48-27.84L142.48-27.84L142.48-27.84Q141.20-28.48 139.76-29.36L139.76-29.36L139.76-29.36Q138.32-30.24 136.56-31.84L136.56-31.84L136.56-31.84Q132.72-35.20 132.72-40.92L132.72-40.92L132.72-40.92Q132.72-46.64 135.84-50.56L135.84-50.56L135.84-50.56Q141.44-57.68 152.64-57.68L152.64-57.68L152.64-57.68Q158.56-57.68 162.64-55.40L162.64-55.40L162.64-55.40Q166.72-53.12 166.72-49.12L166.72-49.12L166.72-49.12Q166.72-46.24 165.08-44.32L165.08-44.32L165.08-44.32Q163.44-42.40 160.88-42.40L160.88-42.40L160.88-42.40Q159.68-42.40 158.52-42.88L158.52-42.88L158.52-42.88Q157.36-43.36 157.36-44.32ZM193.60-6.80L193.60-6.80L195.52-6.88L195.52-6.88Q197.44-6.88 198.12-6.04L198.12-6.04L198.12-6.04Q198.80-5.20 198.80-3.08L198.80-3.08L198.80-3.08Q198.80-0.96 197.88 0.04L197.88 0.04L197.88 0.04Q196.96 1.04 194.28 1.04L194.28 1.04L194.28 1.04Q191.60 1.04 190.52 0L190.52 0L190.52 0Q189.44-1.04 189.44-4.56L189.44-4.56L189.44-4.56Q189.44-8.08 190.48-8.08L190.48-8.08L191.36-7.44L191.36-7.44Q192.24-6.80 193.60-6.80ZM188.88-52.40L188.88-52.40L188.88-52.40Q188.80-52.80 188.80-53.60L188.80-53.60L188.80-53.60Q188.80-54.40 190.12-55.20L190.12-55.20L190.12-55.20Q191.44-56 193.20-56.32L193.20-56.32L193.20-56.32Q196.24-56.96 198.08-56.96L198.08-56.96L198.08-56.96Q199.92-56.96 199.92-55.36L199.92-55.36L199.76-54.40L199.76-54.40Q196.72-41.76 196.72-18.80L196.72-18.80L196.72-18.80Q196.72-16.24 196.80-15.48L196.80-15.48L196.80-15.48Q196.88-14.72 196.80-14.48L196.80-14.48L196.80-14.48Q196.72-14.24 195.96-13.80L195.96-13.80L195.96-13.80Q195.20-13.36 193.92-13.36L193.92-13.36L193.92-13.36Q191.12-13.36 191.04-15.20L191.04-15.20L191.04-15.20Q191.04-43.60 188.88-52.40Z" fill="#f55353"></path></g></g><style>text {
  font-size: 64px;
  font-family: Arial Black;
  dominant-baseline: central;
  text-anchor: middle;
}</style></svg>