<?xml version="1.0" ?><!DOCTYPE svg  PUBLIC '-//W3C//DTD SVG 1.1//EN'  'http://www.w3.org/Graphics/SVG/1.1/DTD/svg11.dtd'><svg enable-background="new 0 0 39.891 39.365" height="39.365px" id="Layer_1" version="1.1" viewBox="0 0 39.891 39.365" width="39.891px" xml:space="preserve" xmlns="http://www.w3.org/2000/svg" xmlns:xlink="http://www.w3.org/1999/xlink"><g><g><g><path d="M12.825,34.668c-1.369,0-2.748-0.545-4.187-1.635c-1.879-1.424-3.928-2.583-5.91-3.705     c-0.824-0.466-1.62-0.917-2.365-1.365C0.138,27.827,0,27.583,0,27.32V0.75c0-0.272,0.148-0.524,0.386-0.656     c0.238-0.133,0.529-0.125,0.761,0.02l10.647,6.652c0.219,0.137,0.353,0.377,0.353,0.636c0,0.686-0.009,1.324-0.017,1.928     c-0.017,1.216-0.031,2.266,0.029,3.314c0.291,5.113,0.609,10.224,0.927,15.334l0.319,5.146c0.871-0.138,1.748-0.582,2.69-1.334     c0.511-0.407,1.048-0.78,1.585-1.153c0.234-0.162,0.469-0.325,0.701-0.49c0.337-0.241,0.805-0.162,1.046,0.175     s0.163,0.806-0.175,1.046c-0.237,0.17-0.478,0.336-0.718,0.503c-0.51,0.354-1.02,0.706-1.504,1.093     C15.607,34.1,14.222,34.668,12.825,34.668z M1.5,26.895c0.627,0.37,1.288,0.744,1.967,1.129c1.93,1.092,4.117,2.33,6.077,3.814     c0.83,0.629,1.603,1.035,2.355,1.219l-0.309-4.984c-0.318-5.114-0.636-10.227-0.928-15.342c-0.063-1.101-0.048-2.176-0.031-3.42     c0.006-0.474,0.013-0.969,0.016-1.493L1.5,2.104V26.895z"/></g></g><g><g><path d="M23.334,17.635c-0.384,0-0.711-0.293-0.746-0.684L21.298,2.43c-0.037-0.413,0.268-0.777,0.681-0.813     c0.407-0.032,0.777,0.268,0.813,0.681l1.291,14.521c0.037,0.413-0.268,0.777-0.681,0.813     C23.379,17.634,23.357,17.635,23.334,17.635z"/></g></g><g><g><path d="M25.618,34.684c-3.032,0-5.619-1.47-7.111-4.227c-3.127-5.783-1.697-10.59,4.136-13.902     c0.221-0.125,0.479-0.126,0.693-0.025c0.074-0.036,0.156-0.059,0.243-0.068c4.419-0.475,7.811,1.736,10.544,3.963     c0.149,0.122,0.247,0.296,0.271,0.488c0.039,0.311,0.065,0.616,0.091,0.917c0.049,0.58,0.095,1.128,0.238,1.613     c1.399,4.745-0.248,8.39-4.638,10.263C28.542,34.363,27.032,34.684,25.618,34.684z M23.337,17.885     c-5.03,2.875-6.212,6.865-3.512,11.858c1.819,3.362,5.524,4.353,9.669,2.583c3.703-1.58,4.978-4.427,3.789-8.46     c-0.186-0.631-0.241-1.281-0.294-1.91c-0.015-0.185-0.031-0.372-0.05-0.561c-2.56-2.054-5.447-3.844-9.2-3.443     C23.596,17.968,23.458,17.942,23.337,17.885z"/></g></g><g><g><path d="M33.015,20.861c-0.414,0-0.75-0.336-0.75-0.75V6.998l-9.294-4.794L12.744,8.175c-0.358,0.209-0.818,0.089-1.026-0.269     c-0.209-0.358-0.088-0.817,0.269-1.026L22.57,0.7c0.221-0.128,0.495-0.135,0.722-0.019l10.067,5.193     c0.25,0.129,0.406,0.386,0.406,0.667v13.57C33.765,20.525,33.429,20.861,33.015,20.861z"/></g></g><g><g><path d="M32.371,27.313c-0.225,0-0.448-0.101-0.595-0.293c-0.565-0.736-1.045-1.547-1.509-2.331     c-1.243-2.1-2.416-4.083-5.105-4.482c-0.41-0.061-0.693-0.442-0.632-0.852s0.443-0.697,0.852-0.632     c3.396,0.503,4.873,3,6.176,5.202c0.461,0.78,0.897,1.517,1.407,2.181c0.252,0.329,0.19,0.8-0.138,1.052     C32.691,27.262,32.53,27.313,32.371,27.313z"/></g></g><g><g><path d="M37.116,39.365c-0.164,0-0.328-0.054-0.465-0.161l-6.682-5.275c-0.325-0.257-0.38-0.729-0.124-1.054     s0.728-0.381,1.053-0.124l6.159,4.862l0.992-0.993l-5.211-4.656c-0.309-0.276-0.336-0.75-0.06-1.06     c0.276-0.307,0.75-0.337,1.059-0.06l5.803,5.186c0.153,0.138,0.244,0.332,0.25,0.538s-0.073,0.405-0.219,0.552l-2.025,2.025     C37.501,39.291,37.309,39.365,37.116,39.365z"/></g></g></g></svg>