<?xml version="1.0" standalone="no"?>
<!DOCTYPE svg PUBLIC "-//W3C//DTD SVG 20010904//EN"
 "http://www.w3.org/TR/2001/REC-SVG-20010904/DTD/svg10.dtd">
<svg version="1.0" xmlns="http://www.w3.org/2000/svg"
 width="512.000000pt" height="512.000000pt" viewBox="0 0 512.000000 512.000000"
 preserveAspectRatio="xMidYMid meet">

<g transform="translate(0.000000,512.000000) scale(0.100000,-0.100000)"
fill="#000000" stroke="none">
<path d="M1290 4985 c-146 -73 -272 -140 -280 -150 -19 -23 -17 -71 5 -95 35
-38 75 -27 282 80 107 55 196 100 198 100 3 0 5 -373 5 -828 l0 -828 -199
-192 c-110 -106 -204 -192 -210 -192 -7 0 -78 20 -158 46 -113 34 -156 44
-184 39 -23 -4 -100 -46 -195 -107 -87 -55 -164 -103 -171 -105 -11 -4 -13
134 -11 778 l3 784 23 32 c17 24 70 56 211 127 104 53 191 103 195 111 14 37
6 74 -20 94 -15 12 -35 21 -44 21 -29 0 -392 -190 -428 -224 -18 -17 -45 -56
-60 -86 l-27 -55 -3 -1548 c-1 -1048 1 -1561 8 -1588 22 -81 88 -129 179 -129
44 0 101 26 607 282 l557 281 153 -76 153 -76 11 -43 c130 -515 546 -898 1068
-984 116 -19 347 -14 457 10 105 23 223 63 308 104 l75 37 58 -53 c70 -63 141
-100 209 -108 49 -6 53 -9 271 -225 236 -235 244 -240 298 -198 28 22 36 75
14 97 -10 10 2 26 52 77 51 52 67 62 81 54 10 -5 31 -9 48 -9 33 0 71 39 71
73 0 14 -76 97 -219 241 -215 217 -219 222 -226 271 -10 75 -48 149 -109 214
l-56 58 39 79 c198 405 165 902 -83 1278 l-46 69 0 728 0 728 -23 27 c-31 35
-82 38 -109 5 -17 -22 -18 -56 -18 -667 0 -354 -3 -644 -6 -644 -3 0 -26 18
-51 40 -25 21 -81 63 -124 91 l-79 52 0 156 c0 104 -4 164 -13 181 -8 16 -63
54 -157 108 -80 46 -150 86 -157 90 -7 4 -17 41 -23 82 -15 93 -40 153 -76
177 -15 10 -120 59 -233 109 l-206 90 0 239 0 238 546 276 c479 242 548 274
562 262 15 -12 17 -46 17 -301 0 -265 1 -290 18 -311 27 -33 78 -30 109 5 23
27 23 27 23 322 0 309 -4 338 -48 387 -29 32 -89 57 -138 57 -42 0 -110 -32
-606 -282 l-559 -283 -629 318 c-345 174 -636 317 -647 316 -10 0 -137 -60
-283 -134z m1035 -466 c-14 -27 -29 -49 -34 -49 -5 0 -35 12 -67 27 -89 40
-129 36 -249 -24 -55 -28 -113 -63 -128 -77 -54 -51 -57 -69 -57 -393 l0 -299
-61 -94 c-33 -52 -65 -99 -70 -105 -5 -5 -9 277 -9 703 l0 713 350 -176 350
-176 -25 -50z m310 -96 l135 -68 0 -208 c0 -195 -1 -209 -17 -202 -99 39 -257
95 -269 95 -8 0 -86 -36 -174 -80 -125 -63 -163 -86 -170 -106 -6 -14 -10
-151 -10 -309 l0 -283 -97 -91 c-54 -50 -105 -91 -113 -91 -12 0 -207 136
-239 166 -2 2 54 92 125 201 l129 197 5 319 c4 268 7 319 20 327 8 6 47 27 86
47 l72 37 63 -27 c127 -54 214 -24 275 96 13 26 29 47 34 47 5 0 71 -30 145
-67z m65 -626 l65 -24 0 -393 0 -392 -63 -24 c-158 -59 -329 -166 -347 -218
-12 -35 10 -77 49 -91 30 -10 25 -12 165 73 158 96 334 149 523 159 334 17
645 -102 878 -337 425 -426 450 -1099 60 -1558 -426 -499 -1192 -538 -1664
-83 -236 228 -356 507 -356 830 0 236 59 436 186 634 49 76 54 110 22 144 -51
55 -108 19 -187 -120 -117 -207 -181 -445 -181 -678 0 -27 -2 -49 -5 -49 -3 0
-48 21 -100 47 l-95 48 0 652 c0 359 3 653 6 653 3 0 41 -27 85 -61 118 -90
170 -106 244 -75 52 22 265 223 286 271 17 35 19 70 19 307 l0 268 97 49 98
49 75 -28 c41 -15 104 -39 140 -53z m415 -170 l159 -72 16 -90 c9 -49 21 -100
28 -111 19 -36 65 -68 192 -139 l120 -67 0 -95 c0 -94 0 -95 -22 -88 -192 60
-240 68 -423 69 -99 1 -198 -1 -220 -4 l-40 -5 -3 338 c-2 316 -1 337 15 336
10 0 90 -33 178 -72z m-1615 -1221 c0 -495 -3 -636 -12 -643 -33 -25 -1069
-543 -1087 -543 -13 0 -23 8 -26 22 -3 13 -4 315 -3 673 l3 649 190 122 c105
68 199 123 210 123 11 1 76 -17 145 -39 141 -45 208 -50 255 -21 17 10 93 79
170 154 77 75 143 136 148 137 4 0 7 -285 7 -634z m2746 -1478 c34 -41 64
-105 64 -138 1 -143 -147 -240 -275 -181 -22 10 -53 32 -69 50 l-30 31 60 54
c32 30 62 55 65 56 3 0 36 36 74 80 38 44 72 80 76 80 4 0 20 -15 35 -32z"/>
<path d="M2997 2670 c-356 -60 -644 -319 -753 -676 -25 -82 -28 -103 -28 -254
0 -151 3 -173 27 -253 99 -323 331 -555 654 -654 80 -24 102 -27 253 -27 151
0 172 3 254 28 326 99 571 348 658 666 19 72 23 109 23 240 0 131 -4 168 -23
240 -47 171 -167 365 -289 467 -135 113 -312 196 -473 222 -74 12 -232 12
-303 1z m360 -169 c40 -12 94 -31 120 -44 l48 -22 3 -233 2 -234 -96 -109
c-53 -60 -106 -111 -117 -114 -672 -165 -660 -161 -697 -202 -23 -24 -50 -74
-74 -133 -21 -52 -41 -99 -45 -103 -12 -12 -87 139 -110 223 -76 273 0 563
198 760 123 123 249 192 411 226 89 19 263 11 357 -15z m428 -296 c58 -82 101
-169 127 -262 32 -111 32 -295 0 -406 -79 -276 -283 -480 -559 -559 -62 -18
-104 -22 -203 -22 -143 0 -233 20 -348 78 -93 47 -195 124 -188 141 3 8 28 71
57 140 49 121 52 125 88 134 20 6 164 42 321 81 157 39 301 77 321 86 45 20
256 260 275 313 9 24 13 94 14 210 l0 174 26 -24 c14 -13 45 -51 69 -84z"/>
</g>
</svg>
